<?xml version="1.0" standalone="no"?>
<!DOCTYPE svg PUBLIC "-//W3C//DTD SVG 20010904//EN"
 "http://www.w3.org/TR/2001/REC-SVG-20010904/DTD/svg10.dtd">
<svg version="1.0" xmlns="http://www.w3.org/2000/svg"
     width="100%" height="100%" viewBox="0 0 1920 540">

  <g transform="translate(0.000000,540.000000) scale(0.100000,-0.100000)" fill="none">
    <path fill="currentColor" d="M9413 4111 c-373 -101 -651 -385 -746 -761 -31 -123 -30 -334 1 -443 48 -169 143 -316 382 -597 68 -80 146 -175 173 -213 27 -37 53 -67 58 -67 15 0 60 162 66 237 5 64 3 78 -20 125 -15 29 -70 105 -122 168 -110 132 -206 270 -243 350 -23 49 -26 71 -30 198 -2 91 0 161 8 190 18 73 82 200 135 271 227 298 665 378 970 175 195 -129 314 -315 345 -538 33 -237 -98 -465 -380 -656 -33 -22 -135 -86 -227 -141 -279 -168 -358 -236 -416 -357 -38 -82 -47 -150 -22 -169 24 -16 564 -19 612 -3 24 9 36 25 63 86 41 94 99 176 236 334 258 297 352 446 395 626 30 126 23 337 -15 469 -55 185 -137 324 -268 451 -95 93 -193 160 -305 208 -136 58 -190 68 -393 72 -160 4 -195 1 -257 -15z"/>
    <path fill="currentColor" d="M1960 2665 l0 -1145 840 0 840 0 -2 213 -3 212 -587 3 -588 2 0 930 0 930 -250 0 -250 0 0 -1145z"/>
    <path fill="currentColor" d="M10797 3803 c-4 -3 -7 -523 -7 -1155 l0 -1148 225 0 225 0 2 785 3 785 575 -785 574 -785 218 0 218 0 -2 1153 -3 1152 -215 0 -215 0 -5 -704 -5 -705 -505 707 -505 707 -286 0 c-157 0 -289 -3 -292 -7z"/>
    <path fill="currentColor" d="M15540 2655 l0 -1155 895 0 895 0 0 215 0 215 -650 0 -650 0 2 243 3 242 523 3 522 2 0 225 0 225 -525 0 -525 0 0 255 0 255 595 0 595 0 0 215 0 215 -840 0 -840 0 0 -1155z"/>
    <path fill="currentColor" d="M3803 2983 c4 -878 2 -851 56 -1006 101 -290 341 -469 697 -517 122 -17 432 -8 534 15 350 78 564 289 646 635 16 68 18 153 21 883 l4 807 -255 0 -255 0 -4 -797 c-3 -875 -1 -843 -65 -956 -34 -61 -89 -107 -169 -138 -53 -22 -74 -24 -228 -24 -153 0 -176 3 -226 23 -116 47 -182 115 -222 231 -22 66 -22 68 -25 864 l-3 797 -255 0 -255 0 4 -817z"/>
    <path fill="currentColor" d="M6130 2650 l0 -1150 240 0 240 0 2 798 3 797 253 -507 252 -508 198 0 197 0 249 511 c138 280 253 512 258 515 4 3 8 -357 8 -800 l0 -806 235 0 235 0 0 1150 0 1150 -333 0 -334 0 -253 -492 c-139 -271 -256 -497 -260 -501 -4 -5 -124 216 -268 490 l-260 498 -331 3 -331 2 0 -1150z"/>
    <path fill="currentColor" d="M13442 2718 c-270 -596 -504 -1113 -521 -1150 l-30 -68 233 0 233 0 120 253 120 252 578 0 577 0 112 -252 111 -253 248 0 c141 0 247 4 245 9 -1 5 -232 522 -513 1150 l-510 1141 -256 0 -256 0 -491 -1082z m942 195 c97 -232 176 -425 176 -428 0 -3 -167 -5 -371 -5 -293 0 -370 3 -366 13 60 151 373 855 378 850 3 -5 86 -198 183 -430z"/>
    <path fill="currentColor" d="M9454 1803 c-66 -4 -87 -18 -99 -63 -3 -15 0 -33 9 -45 13 -19 28 -20 233 -23 273 -5 338 1 359 32 18 29 6 69 -27 87 -23 12 -353 21 -475 12z"/>
    <path fill="currentColor" d="M9408 1593 c-25 -3 -42 -11 -49 -24 -15 -28 -2 -77 24 -91 27 -15 298 -23 444 -13 116 8 133 17 133 69 0 59 -8 61 -274 62 -133 1 -258 -1 -278 -3z"/>
    <path fill="currentColor" d="M9525 1390 c-21 -34 61 -90 132 -90 79 0 180 74 127 94 -26 10 -252 7 -259 -4z"/>
  </g>
</svg>
