<svg version="1.0" xmlns="http://www.w3.org/2000/svg"
 width="238.000000pt" height="316.000000pt" viewBox="0 0 238.000000 316.000000"
 preserveAspectRatio="xMidYMid meet">

<g transform="translate(0.000000,316.000000) scale(0.100000,-0.100000)"
	fill="currentColor">
	<path d="M1040 2646 c-197 -41 -388 -158 -510 -311 -177 -223 -241 -526 -160
	-766 47 -139 119 -247 320 -479 65 -74 136 -161 158 -194 47 -67 42 -71 81 60
	27 90 27 156 1 209 -11 23 -60 87 -108 142 -104 120 -174 221 -210 306 -25 56
	-27 73 -27 187 1 109 4 133 27 192 37 98 85 172 155 242 113 112 247 173 405
	183 194 13 349 -47 494 -191 90 -89 138 -176 168 -297 46 -190 -2 -347 -154
	-499 -93 -93 -147 -131 -379 -266 -203 -118 -287 -190 -335 -285 -37 -74 -46
	-135 -24 -157 9 -9 83 -12 273 -12 296 0 277 -5 309 83 25 68 83 150 190 270
	294 330 376 488 376 724 0 391 -251 727 -628 839 -107 32 -316 42 -422 20z"/>
	<path d="M980 647 c-28 -14 -40 -68 -19 -93 18 -22 481 -21 503 2 29 28 19 71
	-19 92 -31 16 -433 16 -465 -1z"/>
	<path d="M966 467 c-12 -9 -17 -23 -14 -47 5 -57 23 -61 276 -58 208 3 225 4
	238 22 18 26 18 61 -2 80 -13 14 -50 16 -248 16 -174 0 -237 -3 -250 -13z"/>
	<path d="M1090 296 c0 -8 17 -28 37 -45 57 -47 131 -43 191 12 45 41 32 47
	-103 47 -102 0 -125 -3 -125 -14z"/>
</g>
</svg>
